grf
version=1
nRows=19
nColumns=37
inDegrees=no
endheader
time	ground_force_1_vx	ground_force_1_vy	ground_force_1_vz	ground_force_1_px	ground_force_1_py	ground_force_1_pz	ground_moment_1_mx	ground_moment_1_my	ground_moment_1_mz	ground_force_2_vx	ground_force_2_vy	ground_force_2_vz	ground_force_2_px	ground_force_2_py	ground_force_2_pz	ground_moment_2_mx	ground_moment_2_my	ground_moment_2_mz	ground_force_3_vx	ground_force_3_vy	ground_force_3_vz	ground_force_3_px	ground_force_3_py	ground_force_3_pz	ground_moment_3_mx	ground_moment_3_my	ground_moment_3_mz	ground_force_4_vx	ground_force_4_vy	ground_force_4_vz	ground_force_4_px	ground_force_4_py	ground_force_4_pz	ground_moment_4_mx	ground_moment_4_my	ground_moment_4_mz
      6.97000000	      0.00000000	     -0.00000000	      0.00000000	      0.00000000	      0.00000000	      0.00000000	      0.00000000	      0.00000000	      0.00000000	    213.61363220	     70.85671234	  -2001.80664062	   -250.72839866	  -1095.56153962	      0.00000000	      0.00000000	      0.00000000	  23325.73395485	    215.73450871	   -215.91600397	  -1680.10864258	   -251.99620113	   -691.37578251	      0.00000000	      0.00000000	     -0.00000000	 -19652.04742689	      0.00000000	     -0.00000000	      0.00000000	      0.00000000	      0.00000000	      0.00000000	      0.00000000	      0.00000000	      0.00000000
      6.98000000	      0.00000000	     -0.00000000	      0.00000000	      0.00000000	      0.00000000	      0.00000000	      0.00000000	      0.00000000	      0.00000000	    131.95733643	    127.07130432	  -1708.51049805	   -235.24765882	  -1098.76578020	      0.00000000	      0.00000000	      0.00000000	  12648.15638747	    102.23034508	   -280.11930215	  -1393.50830078	   -232.93619889	   -685.19193552	      0.00000000	      0.00000000	     -0.00000000	  -9085.29527477	      0.00000000	     -0.00000000	      0.00000000	      0.00000000	      0.00000000	      0.00000000	      0.00000000	      0.00000000	      0.00000000
      6.99000000	      0.00000000	     -0.00000000	      0.00000000	      0.00000000	      0.00000000	      0.00000000	      0.00000000	      0.00000000	      0.00000000	   -101.10482025	    176.65901184	  -1401.82458496	   -206.78627107	  -1105.58248044	      0.00000000	      0.00000000	      0.00000000	   1363.92774237	    -54.87379545	   -272.07143685	  -1090.09912109	   -203.62751226	   -678.28046780	      0.00000000	      0.00000000	     -0.00000000	  -3878.41746680	      0.00000000	     -0.00000000	      0.00000000	      0.00000000	      0.00000000	      0.00000000	      0.00000000	      0.00000000	      0.00000000
      7.00000000	      0.00000000	     -0.00000000	      0.00000000	      0.00000000	      0.00000000	      0.00000000	      0.00000000	      0.00000000	      0.00000000	   -110.06666565	    148.09487915	  -1247.21704102	   -196.88257901	  -1106.47589957	      0.00000000	      0.00000000	     -0.00000000	   -771.44643711	    -65.87289742	   -210.33445164	   -928.18798828	   -192.19477733	   -677.92533225	      0.00000000	      0.00000000	     -0.00000000	  -5599.68307607	      0.00000000	     -0.00000000	      0.00000000	      0.00000000	      0.00000000	      0.00000000	      0.00000000	      0.00000000	      0.00000000
      7.01000000	      0.00000000	     -0.00000000	      0.00000000	      0.00000000	      0.00000000	      0.00000000	      0.00000000	      0.00000000	      0.00000000	   -115.30043030	    129.79353333	  -1209.41540527	   -196.32252718	  -1105.45479282	      0.00000000	      0.00000000	      0.00000000	    886.93674352	    -81.72607441	   -176.77336932	   -825.78350830	   -186.79774682	   -679.07499365	      0.00000000	      0.00000000	     -0.00000000	  -7615.79225136	      0.00000000	     -0.00000000	      0.00000000	      0.00000000	      0.00000000	      0.00000000	      0.00000000	      0.00000000	      0.00000000
      7.02000000	      0.00000000	     -0.00000000	      0.00000000	      0.00000000	      0.00000000	      0.00000000	      0.00000000	      0.00000000	      0.00000000	    -89.03224182	    109.31661987	  -1224.23608398	   -203.08905566	  -1103.34852251	      0.00000000	      0.00000000	      0.00000000	   3719.42018513	    -83.62204548	   -152.33762392	   -741.16253662	   -184.00965805	   -679.54174487	      0.00000000	      0.00000000	     -0.00000000	  -8461.75589864	      0.00000000	     -0.00000000	      0.00000000	      0.00000000	      0.00000000	      0.00000000	      0.00000000	      0.00000000	      0.00000000
      7.03000000	      0.00000000	     -0.00000000	      0.00000000	      0.00000000	      0.00000000	      0.00000000	      0.00000000	      0.00000000	      0.00000000	    -43.26315689	    101.45767975	  -1227.31188965	   -211.49061774	  -1102.24907424	      0.00000000	      0.00000000	      0.00000000	   4537.87123736	    -83.83438482	   -129.72670776	   -664.35437012	   -182.23353402	   -680.03469321	      0.00000000	      0.00000000	     -0.00000000	  -9177.04349856	      0.00000000	     -0.00000000	      0.00000000	      0.00000000	      0.00000000	      0.00000000	      0.00000000	      0.00000000	      0.00000000
      7.04000000	      0.00000000	     -0.00000000	      0.00000000	      0.00000000	      0.00000000	      0.00000000	      0.00000000	      0.00000000	      0.00000000	    -30.86848450	    120.37174988	  -1161.20104980	   -213.13973201	  -1103.47551873	      0.00000000	      0.00000000	      0.00000000	   1621.69185654	    -74.81939888	   -109.05646624	   -586.38610840	   -181.75969451	   -679.80361362	      0.00000000	      0.00000000	     -0.00000000	  -8864.26813513	      0.00000000	     -0.00000000	      0.00000000	      0.00000000	      0.00000000	      0.00000000	      0.00000000	      0.00000000	      0.00000000
      7.05000000	      0.00000000	     -0.00000000	      0.00000000	      0.00000000	      0.00000000	      0.00000000	      0.00000000	      0.00000000	      0.00000000	    -40.31190491	    135.68869019	  -1051.03979492	   -210.60232345	  -1106.76908934	      0.00000000	      0.00000000	     -0.00000000	   -703.53797591	    -63.88055108	    -95.22125449	   -501.55566406	   -181.66583719	   -679.81926411	      0.00000000	      0.00000000	     -0.00000000	  -7230.47804700	      0.00000000	     -0.00000000	      0.00000000	      0.00000000	      0.00000000	      0.00000000	      0.00000000	      0.00000000	      0.00000000
      7.06000000	      0.00000000	     -0.00000000	      0.00000000	      0.00000000	      0.00000000	      0.00000000	      0.00000000	      0.00000000	      0.00000000	    -47.37078094	    134.88677979	   -928.84118652	   -207.01484111	  -1109.46457917	      0.00000000	      0.00000000	     -0.00000000	  -1212.32297374	    -49.39730049	    -84.68011806	   -413.11544800	   -181.52128770	   -677.60086659	      0.00000000	      0.00000000	     -0.00000000	  -5147.42228655	      0.00000000	     -0.00000000	      0.00000000	      0.00000000	      0.00000000	      0.00000000	      0.00000000	      0.00000000	      0.00000000
      7.07000000	      0.00000000	     -0.00000000	      0.00000000	      0.00000000	      0.00000000	      0.00000000	      0.00000000	      0.00000000	      0.00000000	    -45.02540207	    124.87628174	   -803.48187256	   -204.45419749	  -1110.84640215	      0.00000000	      0.00000000	     -0.00000000	   -837.27232279	    -33.99146914	    -73.52896584	   -326.63592529	   -183.23583079	   -676.03272900	      0.00000000	      0.00000000	     -0.00000000	  -3030.44654667	      0.00000000	     -0.00000000	      0.00000000	      0.00000000	      0.00000000	      0.00000000	      0.00000000	      0.00000000	      0.00000000
      7.08000000	      0.00000000	     -0.00000000	      0.00000000	      0.00000000	      0.00000000	      0.00000000	      0.00000000	      0.00000000	      0.00000000	    -37.38918686	    112.22265625	   -684.82336426	   -203.11884783	  -1113.32295016	      0.00000000	      0.00000000	     -0.00000000	   -571.74350616	    -20.94523964	    -61.10019119	   -242.61557007	   -182.84164725	   -674.95443216	      0.00000000	      0.00000000	     -0.00000000	  -1069.70392923	      0.00000000	     -0.00000000	      0.00000000	      0.00000000	      0.00000000	      0.00000000	      0.00000000	      0.00000000	      0.00000000
      7.09000000	      0.00000000	     -0.00000000	      0.00000000	      0.00000000	      0.00000000	      0.00000000	      0.00000000	      0.00000000	      0.00000000	    -25.88181877	     97.99568176	   -574.12396240	   -202.44754305	  -1114.61376830	      0.00000000	      0.00000000	     -0.00000000	   -349.68548666	    -10.50857675	    -47.73679260	   -171.50421143	   -183.36138181	   -673.01990717	      0.00000000	      0.00000000	      0.00000000	     36.02699737	      0.00000000	     -0.00000000	      0.00000000	      0.00000000	      0.00000000	      0.00000000	      0.00000000	      0.00000000	      0.00000000
      7.10000000	      0.00000000	     -0.00000000	      0.00000000	      0.00000000	      0.00000000	      0.00000000	      0.00000000	      0.00000000	      0.00000000	    -11.17174721	     80.83975220	   -479.68768311	   -202.51688575	  -1116.14966619	      0.00000000	      0.00000000	     -0.00000000	   -157.01576693	     -4.02248975	    -35.01687968	   -115.98429871	   -183.56326782	   -670.51840931	      0.00000000	      0.00000000	      0.00000000	    727.23378907	      0.00000000	     -0.00000000	      0.00000000	      0.00000000	      0.00000000	      0.00000000	      0.00000000	      0.00000000	      0.00000000
      7.11000000	      0.00000000	     -0.00000000	      0.00000000	      0.00000000	      0.00000000	      0.00000000	      0.00000000	      0.00000000	      0.00000000	      4.15588570	     64.84100342	   -400.34875488	   -203.61790151	  -1116.14219139	      0.00000000	      0.00000000	     -0.00000000	   -368.61723133	      0.76483852	    -24.47105987	    -75.82472992	   -185.56607562	   -667.45418774	      0.00000000	      0.00000000	      0.00000000	    836.26733331	      0.00000000	     -0.00000000	      0.00000000	      0.00000000	      0.00000000	      0.00000000	      0.00000000	      0.00000000	      0.00000000
      7.12000000	      0.00000000	     -0.00000000	      0.00000000	      0.00000000	      0.00000000	      0.00000000	      0.00000000	      0.00000000	      0.00000000	     13.43664455	     53.30658340	   -340.85787964	   -203.08343914	  -1118.12581770	      0.00000000	      0.00000000	     -0.00000000	   -358.71797507	      3.63396451	    -16.69912370	    -50.18228149	   -188.21016064	   -662.09024477	      0.00000000	      0.00000000	      0.00000000	    914.29843064	      0.00000000	     -0.00000000	      0.00000000	      0.00000000	      0.00000000	      0.00000000	      0.00000000	      0.00000000	      0.00000000
      7.13000000	      0.00000000	     -0.00000000	      0.00000000	      0.00000000	      0.00000000	      0.00000000	      0.00000000	      0.00000000	      0.00000000	     16.83340263	     44.87405777	   -298.69580078	   -204.22283070	  -1119.26760870	      0.00000000	      0.00000000	     -0.00000000	   -603.14746087	      5.99822740	    -13.10217910	    -35.84177017	   -180.25059630	   -655.68236086	      0.00000000	      0.00000000	      0.00000000	    703.55944312	      0.00000000	     -0.00000000	      0.00000000	      0.00000000	      0.00000000	      0.00000000	      0.00000000	      0.00000000	      0.00000000
      7.14000000	      0.00000000	     -0.00000000	      0.00000000	      0.00000000	      0.00000000	      0.00000000	      0.00000000	      0.00000000	      0.00000000	     17.15939713	     37.91882324	   -263.86968994	   -201.74122053	  -1118.69266946	      0.00000000	      0.00000000	     -0.00000000	   -815.38834075	      5.03293939	    -11.38435312	    -30.29756355	   -181.86256903	   -651.09583007	      0.00000000	      0.00000000	      0.00000000	    323.21391022	      0.00000000	     -0.00000000	      0.00000000	      0.00000000	      0.00000000	      0.00000000	      0.00000000	      0.00000000	      0.00000000
      7.15000000	      0.00000000	     -0.00000000	      0.00000000	      0.00000000	      0.00000000	      0.00000000	      0.00000000	      0.00000000	      0.00000000	     14.97945786	     32.17607880	   -237.24526978	   -202.44368028	  -1120.05504709	      0.00000000	      0.00000000	     -0.00000000	   -790.03548131	      3.72967435	    -10.75214800	    -25.71582031	   -178.02873687	   -657.66493680	      0.00000000	      0.00000000	      0.00000000	    202.78982865	      0.00000000	     -0.00000000	      0.00000000	      0.00000000	      0.00000000	      0.00000000	      0.00000000	      0.00000000	      0.00000000
